<svg width="22" height="22" viewBox="0 0 22 22" fill="none" xmlns="http://www.w3.org/2000/svg">
<path d="M17.5928 5.89711L18.8848 4.65568V4.38379H14.4102L11.2212 12.3593L7.59391 4.38379H2.9022V4.65568L4.4113 6.48094C4.55884 6.61583 4.63472 6.81395 4.61575 7.01208V14.1845C4.66212 14.4438 4.57992 14.7072 4.39866 14.8948L2.69775 16.9667V17.2344H7.51593V16.9625L5.81713 14.8969C5.72611 14.8045 5.65765 14.6924 5.61707 14.5692C5.57649 14.446 5.56489 14.3151 5.58318 14.1867V7.98161L9.81331 17.2386H10.3044L13.9423 7.98161V15.3564C13.9423 15.5503 13.9423 15.5904 13.8158 15.7189L12.5069 16.9899V17.2618H18.8553V16.9899L17.5928 15.7484C17.4832 15.6641 17.4263 15.5229 17.4495 15.3859V6.25963C17.4386 6.1919 17.4461 6.12248 17.4713 6.05868C17.4966 5.99488 17.5385 5.93907 17.5928 5.89711Z" fill="white"/>
</svg>
