<svg width="22" height="22" viewBox="0 0 22 22" fill="none" xmlns="http://www.w3.org/2000/svg">
<g clip-path="url(#clip0_46313_6970)">
<path d="M21.5728 2.27684C21.5933 2.15327 21.5812 2.02648 21.5377 1.90901C21.4942 1.79154 21.4208 1.68747 21.3247 1.60709C21.2286 1.52671 21.1132 1.47281 20.9899 1.45072C20.8666 1.42864 20.7397 1.43913 20.6217 1.48116L0.477786 8.67541C0.345006 8.72275 0.229062 8.80807 0.144357 8.92075C0.0596518 9.03344 0.00991867 9.16852 0.00133516 9.30923C-0.00724835 9.44994 0.025696 9.59007 0.096076 9.71221C0.166456 9.83436 0.27117 9.93313 0.39721 9.99627L6.15261 12.874C6.26603 12.9307 6.39245 12.9565 6.51904 12.9487C6.64564 12.9408 6.76791 12.8997 6.87347 12.8294L11.6504 9.64375L8.79146 13.2207C8.72924 13.2986 8.68388 13.3885 8.65825 13.4848C8.63261 13.5811 8.62727 13.6817 8.64256 13.7802C8.65784 13.8787 8.69342 13.9729 8.74704 14.0569C8.80066 14.1409 8.87115 14.2129 8.95405 14.2682L17.5871 20.0236C17.6871 20.0901 17.8021 20.1305 17.9217 20.1411C18.0413 20.1518 18.1616 20.1323 18.2717 20.0845C18.3819 20.0368 18.4783 19.9622 18.5522 19.8676C18.6262 19.773 18.6753 19.6614 18.6951 19.543L21.5728 2.27684Z" fill="white"/>
</g>
<defs>
<clipPath id="clip0_46313_6970">
<rect width="21.5827" height="21.5827" fill="white"/>
</clipPath>
</defs>
</svg>
